<mxfile host="Electron" agent="Mozilla/5.0 (Windows NT 10.0; Win64; x64) AppleWebKit/537.36 (KHTML, like Gecko) draw.io/24.7.8 Chrome/128.0.6613.36 Electron/32.0.1 Safari/537.36" version="24.7.8">
  <diagram id="C5RBs43oDa-KdzZeNtuy" name="Page-1">
    <mxGraphModel dx="1338" dy="648" grid="1" gridSize="10" guides="1" tooltips="1" connect="1" arrows="1" fold="1" page="1" pageScale="1" pageWidth="827" pageHeight="1169" math="0" shadow="0">
      <root>
        <mxCell id="WIyWlLk6GJQsqaUBKTNV-0" />
        <mxCell id="WIyWlLk6GJQsqaUBKTNV-1" parent="WIyWlLk6GJQsqaUBKTNV-0" />
        <mxCell id="zkfFHV4jXpPFQw0GAbJ--0" value="Animals" style="swimlane;fontStyle=2;align=center;verticalAlign=top;childLayout=stackLayout;horizontal=1;startSize=26;horizontalStack=0;resizeParent=1;resizeLast=0;collapsible=1;marginBottom=0;rounded=0;shadow=0;strokeWidth=1;" parent="WIyWlLk6GJQsqaUBKTNV-1" vertex="1">
          <mxGeometry x="220" y="40" width="170" height="80" as="geometry">
            <mxRectangle x="220" y="120" width="160" height="26" as="alternateBounds" />
          </mxGeometry>
        </mxCell>
        <mxCell id="zkfFHV4jXpPFQw0GAbJ--1" value="id_animals" style="text;align=left;verticalAlign=top;spacingLeft=4;spacingRight=4;overflow=hidden;rotatable=0;points=[[0,0.5],[1,0.5]];portConstraint=eastwest;" parent="zkfFHV4jXpPFQw0GAbJ--0" vertex="1">
          <mxGeometry y="26" width="170" height="26" as="geometry" />
        </mxCell>
        <mxCell id="zkfFHV4jXpPFQw0GAbJ--2" value="type_animals" style="text;align=left;verticalAlign=top;spacingLeft=4;spacingRight=4;overflow=hidden;rotatable=0;points=[[0,0.5],[1,0.5]];portConstraint=eastwest;rounded=0;shadow=0;html=0;" parent="zkfFHV4jXpPFQw0GAbJ--0" vertex="1">
          <mxGeometry y="52" width="170" height="26" as="geometry" />
        </mxCell>
        <mxCell id="zkfFHV4jXpPFQw0GAbJ--6" value="Commands" style="swimlane;fontStyle=0;align=center;verticalAlign=top;childLayout=stackLayout;horizontal=1;startSize=26;horizontalStack=0;resizeParent=1;resizeLast=0;collapsible=1;marginBottom=0;rounded=0;shadow=0;strokeWidth=1;" parent="WIyWlLk6GJQsqaUBKTNV-1" vertex="1">
          <mxGeometry x="580" y="90" width="160" height="130" as="geometry">
            <mxRectangle x="130" y="380" width="160" height="26" as="alternateBounds" />
          </mxGeometry>
        </mxCell>
        <mxCell id="zkfFHV4jXpPFQw0GAbJ--7" value="Id_commands" style="text;align=left;verticalAlign=top;spacingLeft=4;spacingRight=4;overflow=hidden;rotatable=0;points=[[0,0.5],[1,0.5]];portConstraint=eastwest;" parent="zkfFHV4jXpPFQw0GAbJ--6" vertex="1">
          <mxGeometry y="26" width="160" height="26" as="geometry" />
        </mxCell>
        <mxCell id="r0YGd7jGBZpI2BigV5lq-0" value="name_commands" style="text;align=left;verticalAlign=top;spacingLeft=4;spacingRight=4;overflow=hidden;rotatable=0;points=[[0,0.5],[1,0.5]];portConstraint=eastwest;" vertex="1" parent="zkfFHV4jXpPFQw0GAbJ--6">
          <mxGeometry y="52" width="160" height="26" as="geometry" />
        </mxCell>
        <mxCell id="zkfFHV4jXpPFQw0GAbJ--17" value="Pets" style="swimlane;fontStyle=0;align=center;verticalAlign=top;childLayout=stackLayout;horizontal=1;startSize=26;horizontalStack=0;resizeParent=1;resizeLast=0;collapsible=1;marginBottom=0;rounded=0;shadow=0;strokeWidth=1;" parent="WIyWlLk6GJQsqaUBKTNV-1" vertex="1">
          <mxGeometry x="70" y="190" width="170" height="80" as="geometry">
            <mxRectangle x="550" y="140" width="160" height="26" as="alternateBounds" />
          </mxGeometry>
        </mxCell>
        <mxCell id="zkfFHV4jXpPFQw0GAbJ--18" value="id_pets" style="text;align=left;verticalAlign=top;spacingLeft=4;spacingRight=4;overflow=hidden;rotatable=0;points=[[0,0.5],[1,0.5]];portConstraint=eastwest;" parent="zkfFHV4jXpPFQw0GAbJ--17" vertex="1">
          <mxGeometry y="26" width="170" height="26" as="geometry" />
        </mxCell>
        <mxCell id="zkfFHV4jXpPFQw0GAbJ--19" value="type_pets" style="text;align=left;verticalAlign=top;spacingLeft=4;spacingRight=4;overflow=hidden;rotatable=0;points=[[0,0.5],[1,0.5]];portConstraint=eastwest;rounded=0;shadow=0;html=0;" parent="zkfFHV4jXpPFQw0GAbJ--17" vertex="1">
          <mxGeometry y="52" width="170" height="26" as="geometry" />
        </mxCell>
        <mxCell id="Vpkc8oP_tYxhBSiS7Xzb-7" value="PackAnimals" style="swimlane;fontStyle=0;align=center;verticalAlign=top;childLayout=stackLayout;horizontal=1;startSize=26;horizontalStack=0;resizeParent=1;resizeLast=0;collapsible=1;marginBottom=0;rounded=0;shadow=0;strokeWidth=1;" parent="WIyWlLk6GJQsqaUBKTNV-1" vertex="1">
          <mxGeometry x="360" y="190" width="170" height="80" as="geometry">
            <mxRectangle x="550" y="140" width="160" height="26" as="alternateBounds" />
          </mxGeometry>
        </mxCell>
        <mxCell id="Vpkc8oP_tYxhBSiS7Xzb-8" value="id_pack_animals" style="text;align=left;verticalAlign=top;spacingLeft=4;spacingRight=4;overflow=hidden;rotatable=0;points=[[0,0.5],[1,0.5]];portConstraint=eastwest;" parent="Vpkc8oP_tYxhBSiS7Xzb-7" vertex="1">
          <mxGeometry y="26" width="170" height="26" as="geometry" />
        </mxCell>
        <mxCell id="Vpkc8oP_tYxhBSiS7Xzb-9" value="type_pack_animals" style="text;align=left;verticalAlign=top;spacingLeft=4;spacingRight=4;overflow=hidden;rotatable=0;points=[[0,0.5],[1,0.5]];portConstraint=eastwest;rounded=0;shadow=0;html=0;" parent="Vpkc8oP_tYxhBSiS7Xzb-7" vertex="1">
          <mxGeometry y="52" width="170" height="26" as="geometry" />
        </mxCell>
        <mxCell id="NbYUqvhHUvDfvWMLCeVP-6" value="Dogs" style="swimlane;fontStyle=0;align=center;verticalAlign=top;childLayout=stackLayout;horizontal=1;startSize=26;horizontalStack=0;resizeParent=1;resizeLast=0;collapsible=1;marginBottom=0;rounded=0;shadow=0;strokeWidth=1;" parent="WIyWlLk6GJQsqaUBKTNV-1" vertex="1">
          <mxGeometry x="120" y="310" width="170" height="130" as="geometry">
            <mxRectangle x="550" y="140" width="160" height="26" as="alternateBounds" />
          </mxGeometry>
        </mxCell>
        <mxCell id="NbYUqvhHUvDfvWMLCeVP-7" value="id" style="text;align=left;verticalAlign=top;spacingLeft=4;spacingRight=4;overflow=hidden;rotatable=0;points=[[0,0.5],[1,0.5]];portConstraint=eastwest;" parent="NbYUqvhHUvDfvWMLCeVP-6" vertex="1">
          <mxGeometry y="26" width="170" height="24" as="geometry" />
        </mxCell>
        <mxCell id="NbYUqvhHUvDfvWMLCeVP-8" value="name" style="text;align=left;verticalAlign=top;spacingLeft=4;spacingRight=4;overflow=hidden;rotatable=0;points=[[0,0.5],[1,0.5]];portConstraint=eastwest;rounded=0;shadow=0;html=0;" parent="NbYUqvhHUvDfvWMLCeVP-6" vertex="1">
          <mxGeometry y="50" width="170" height="26" as="geometry" />
        </mxCell>
        <mxCell id="NbYUqvhHUvDfvWMLCeVP-24" value="birthday" style="text;align=left;verticalAlign=top;spacingLeft=4;spacingRight=4;overflow=hidden;rotatable=0;points=[[0,0.5],[1,0.5]];portConstraint=eastwest;rounded=0;shadow=0;html=0;" parent="NbYUqvhHUvDfvWMLCeVP-6" vertex="1">
          <mxGeometry y="76" width="170" height="26" as="geometry" />
        </mxCell>
        <mxCell id="NbYUqvhHUvDfvWMLCeVP-25" value="commands" style="text;align=left;verticalAlign=top;spacingLeft=4;spacingRight=4;overflow=hidden;rotatable=0;points=[[0,0.5],[1,0.5]];portConstraint=eastwest;rounded=0;shadow=0;html=0;" parent="NbYUqvhHUvDfvWMLCeVP-6" vertex="1">
          <mxGeometry y="102" width="170" height="26" as="geometry" />
        </mxCell>
        <mxCell id="NbYUqvhHUvDfvWMLCeVP-30" value="Cats" style="swimlane;fontStyle=0;align=center;verticalAlign=top;childLayout=stackLayout;horizontal=1;startSize=26;horizontalStack=0;resizeParent=1;resizeLast=0;collapsible=1;marginBottom=0;rounded=0;shadow=0;strokeWidth=1;" parent="WIyWlLk6GJQsqaUBKTNV-1" vertex="1">
          <mxGeometry x="120" y="470" width="170" height="140" as="geometry">
            <mxRectangle x="550" y="140" width="160" height="26" as="alternateBounds" />
          </mxGeometry>
        </mxCell>
        <mxCell id="NbYUqvhHUvDfvWMLCeVP-31" value="id" style="text;align=left;verticalAlign=top;spacingLeft=4;spacingRight=4;overflow=hidden;rotatable=0;points=[[0,0.5],[1,0.5]];portConstraint=eastwest;" parent="NbYUqvhHUvDfvWMLCeVP-30" vertex="1">
          <mxGeometry y="26" width="170" height="24" as="geometry" />
        </mxCell>
        <mxCell id="NbYUqvhHUvDfvWMLCeVP-32" value="name" style="text;align=left;verticalAlign=top;spacingLeft=4;spacingRight=4;overflow=hidden;rotatable=0;points=[[0,0.5],[1,0.5]];portConstraint=eastwest;rounded=0;shadow=0;html=0;" parent="NbYUqvhHUvDfvWMLCeVP-30" vertex="1">
          <mxGeometry y="50" width="170" height="26" as="geometry" />
        </mxCell>
        <mxCell id="NbYUqvhHUvDfvWMLCeVP-33" value="birthday" style="text;align=left;verticalAlign=top;spacingLeft=4;spacingRight=4;overflow=hidden;rotatable=0;points=[[0,0.5],[1,0.5]];portConstraint=eastwest;rounded=0;shadow=0;html=0;" parent="NbYUqvhHUvDfvWMLCeVP-30" vertex="1">
          <mxGeometry y="76" width="170" height="26" as="geometry" />
        </mxCell>
        <mxCell id="NbYUqvhHUvDfvWMLCeVP-34" value="commands" style="text;align=left;verticalAlign=top;spacingLeft=4;spacingRight=4;overflow=hidden;rotatable=0;points=[[0,0.5],[1,0.5]];portConstraint=eastwest;rounded=0;shadow=0;html=0;" parent="NbYUqvhHUvDfvWMLCeVP-30" vertex="1">
          <mxGeometry y="102" width="170" height="26" as="geometry" />
        </mxCell>
        <mxCell id="NbYUqvhHUvDfvWMLCeVP-39" value="Hamsters" style="swimlane;fontStyle=0;align=center;verticalAlign=top;childLayout=stackLayout;horizontal=1;startSize=26;horizontalStack=0;resizeParent=1;resizeLast=0;collapsible=1;marginBottom=0;rounded=0;shadow=0;strokeWidth=1;" parent="WIyWlLk6GJQsqaUBKTNV-1" vertex="1">
          <mxGeometry x="120" y="640" width="170" height="130" as="geometry">
            <mxRectangle x="550" y="140" width="160" height="26" as="alternateBounds" />
          </mxGeometry>
        </mxCell>
        <mxCell id="NbYUqvhHUvDfvWMLCeVP-40" value="id" style="text;align=left;verticalAlign=top;spacingLeft=4;spacingRight=4;overflow=hidden;rotatable=0;points=[[0,0.5],[1,0.5]];portConstraint=eastwest;" parent="NbYUqvhHUvDfvWMLCeVP-39" vertex="1">
          <mxGeometry y="26" width="170" height="24" as="geometry" />
        </mxCell>
        <mxCell id="NbYUqvhHUvDfvWMLCeVP-41" value="name" style="text;align=left;verticalAlign=top;spacingLeft=4;spacingRight=4;overflow=hidden;rotatable=0;points=[[0,0.5],[1,0.5]];portConstraint=eastwest;rounded=0;shadow=0;html=0;" parent="NbYUqvhHUvDfvWMLCeVP-39" vertex="1">
          <mxGeometry y="50" width="170" height="26" as="geometry" />
        </mxCell>
        <mxCell id="NbYUqvhHUvDfvWMLCeVP-42" value="birthday" style="text;align=left;verticalAlign=top;spacingLeft=4;spacingRight=4;overflow=hidden;rotatable=0;points=[[0,0.5],[1,0.5]];portConstraint=eastwest;rounded=0;shadow=0;html=0;" parent="NbYUqvhHUvDfvWMLCeVP-39" vertex="1">
          <mxGeometry y="76" width="170" height="26" as="geometry" />
        </mxCell>
        <mxCell id="NbYUqvhHUvDfvWMLCeVP-43" value="commands" style="text;align=left;verticalAlign=top;spacingLeft=4;spacingRight=4;overflow=hidden;rotatable=0;points=[[0,0.5],[1,0.5]];portConstraint=eastwest;rounded=0;shadow=0;html=0;" parent="NbYUqvhHUvDfvWMLCeVP-39" vertex="1">
          <mxGeometry y="102" width="170" height="26" as="geometry" />
        </mxCell>
        <mxCell id="NbYUqvhHUvDfvWMLCeVP-52" value="" style="endArrow=classic;html=1;rounded=0;exitX=0;exitY=0.115;exitDx=0;exitDy=0;exitPerimeter=0;entryX=0.059;entryY=1.077;entryDx=0;entryDy=0;entryPerimeter=0;" parent="WIyWlLk6GJQsqaUBKTNV-1" source="NbYUqvhHUvDfvWMLCeVP-42" target="zkfFHV4jXpPFQw0GAbJ--19" edge="1">
          <mxGeometry width="50" height="50" relative="1" as="geometry">
            <mxPoint x="390" y="560" as="sourcePoint" />
            <mxPoint x="80" y="280" as="targetPoint" />
            <Array as="points">
              <mxPoint x="80" y="720" />
              <mxPoint x="80" y="680" />
              <mxPoint x="80" y="500" />
            </Array>
          </mxGeometry>
        </mxCell>
        <mxCell id="NbYUqvhHUvDfvWMLCeVP-56" value="" style="endArrow=none;html=1;rounded=0;exitX=-0.012;exitY=0.923;exitDx=0;exitDy=0;exitPerimeter=0;" parent="WIyWlLk6GJQsqaUBKTNV-1" source="NbYUqvhHUvDfvWMLCeVP-33" edge="1">
          <mxGeometry width="50" height="50" relative="1" as="geometry">
            <mxPoint x="390" y="580" as="sourcePoint" />
            <mxPoint x="80" y="570" as="targetPoint" />
          </mxGeometry>
        </mxCell>
        <mxCell id="NbYUqvhHUvDfvWMLCeVP-57" value="" style="endArrow=none;html=1;rounded=0;exitX=0;exitY=0.5;exitDx=0;exitDy=0;" parent="WIyWlLk6GJQsqaUBKTNV-1" source="NbYUqvhHUvDfvWMLCeVP-24" edge="1">
          <mxGeometry width="50" height="50" relative="1" as="geometry">
            <mxPoint x="390" y="580" as="sourcePoint" />
            <mxPoint x="80" y="400" as="targetPoint" />
          </mxGeometry>
        </mxCell>
        <mxCell id="NbYUqvhHUvDfvWMLCeVP-58" value="" style="endArrow=classic;html=1;rounded=0;entryX=1;entryY=0.5;entryDx=0;entryDy=0;" parent="WIyWlLk6GJQsqaUBKTNV-1" edge="1">
          <mxGeometry width="50" height="50" relative="1" as="geometry">
            <mxPoint x="440" y="191" as="sourcePoint" />
            <mxPoint x="390" y="90" as="targetPoint" />
            <Array as="points">
              <mxPoint x="440" y="90" />
            </Array>
          </mxGeometry>
        </mxCell>
        <mxCell id="NbYUqvhHUvDfvWMLCeVP-59" value="" style="endArrow=classic;html=1;rounded=0;exitX=0.5;exitY=0;exitDx=0;exitDy=0;entryX=0;entryY=0.962;entryDx=0;entryDy=0;entryPerimeter=0;" parent="WIyWlLk6GJQsqaUBKTNV-1" source="zkfFHV4jXpPFQw0GAbJ--17" target="zkfFHV4jXpPFQw0GAbJ--1" edge="1">
          <mxGeometry width="50" height="50" relative="1" as="geometry">
            <mxPoint x="390" y="180" as="sourcePoint" />
            <mxPoint x="440" y="130" as="targetPoint" />
            <Array as="points">
              <mxPoint x="155" y="91" />
            </Array>
          </mxGeometry>
        </mxCell>
        <mxCell id="NbYUqvhHUvDfvWMLCeVP-60" value="Horses" style="swimlane;fontStyle=0;align=center;verticalAlign=top;childLayout=stackLayout;horizontal=1;startSize=26;horizontalStack=0;resizeParent=1;resizeLast=0;collapsible=1;marginBottom=0;rounded=0;shadow=0;strokeWidth=1;" parent="WIyWlLk6GJQsqaUBKTNV-1" vertex="1">
          <mxGeometry x="440" y="310" width="170" height="130" as="geometry">
            <mxRectangle x="550" y="140" width="160" height="26" as="alternateBounds" />
          </mxGeometry>
        </mxCell>
        <mxCell id="NbYUqvhHUvDfvWMLCeVP-61" value="id" style="text;align=left;verticalAlign=top;spacingLeft=4;spacingRight=4;overflow=hidden;rotatable=0;points=[[0,0.5],[1,0.5]];portConstraint=eastwest;" parent="NbYUqvhHUvDfvWMLCeVP-60" vertex="1">
          <mxGeometry y="26" width="170" height="24" as="geometry" />
        </mxCell>
        <mxCell id="NbYUqvhHUvDfvWMLCeVP-62" value="name" style="text;align=left;verticalAlign=top;spacingLeft=4;spacingRight=4;overflow=hidden;rotatable=0;points=[[0,0.5],[1,0.5]];portConstraint=eastwest;rounded=0;shadow=0;html=0;" parent="NbYUqvhHUvDfvWMLCeVP-60" vertex="1">
          <mxGeometry y="50" width="170" height="26" as="geometry" />
        </mxCell>
        <mxCell id="NbYUqvhHUvDfvWMLCeVP-63" value="birthday" style="text;align=left;verticalAlign=top;spacingLeft=4;spacingRight=4;overflow=hidden;rotatable=0;points=[[0,0.5],[1,0.5]];portConstraint=eastwest;rounded=0;shadow=0;html=0;" parent="NbYUqvhHUvDfvWMLCeVP-60" vertex="1">
          <mxGeometry y="76" width="170" height="26" as="geometry" />
        </mxCell>
        <mxCell id="NbYUqvhHUvDfvWMLCeVP-64" value="commands" style="text;align=left;verticalAlign=top;spacingLeft=4;spacingRight=4;overflow=hidden;rotatable=0;points=[[0,0.5],[1,0.5]];portConstraint=eastwest;rounded=0;shadow=0;html=0;" parent="NbYUqvhHUvDfvWMLCeVP-60" vertex="1">
          <mxGeometry y="102" width="170" height="26" as="geometry" />
        </mxCell>
        <mxCell id="NbYUqvhHUvDfvWMLCeVP-69" value="Camels" style="swimlane;fontStyle=0;align=center;verticalAlign=top;childLayout=stackLayout;horizontal=1;startSize=26;horizontalStack=0;resizeParent=1;resizeLast=0;collapsible=1;marginBottom=0;rounded=0;shadow=0;strokeWidth=1;" parent="WIyWlLk6GJQsqaUBKTNV-1" vertex="1">
          <mxGeometry x="440" y="470" width="170" height="140" as="geometry">
            <mxRectangle x="550" y="140" width="160" height="26" as="alternateBounds" />
          </mxGeometry>
        </mxCell>
        <mxCell id="NbYUqvhHUvDfvWMLCeVP-70" value="id" style="text;align=left;verticalAlign=top;spacingLeft=4;spacingRight=4;overflow=hidden;rotatable=0;points=[[0,0.5],[1,0.5]];portConstraint=eastwest;" parent="NbYUqvhHUvDfvWMLCeVP-69" vertex="1">
          <mxGeometry y="26" width="170" height="24" as="geometry" />
        </mxCell>
        <mxCell id="NbYUqvhHUvDfvWMLCeVP-71" value="name" style="text;align=left;verticalAlign=top;spacingLeft=4;spacingRight=4;overflow=hidden;rotatable=0;points=[[0,0.5],[1,0.5]];portConstraint=eastwest;rounded=0;shadow=0;html=0;" parent="NbYUqvhHUvDfvWMLCeVP-69" vertex="1">
          <mxGeometry y="50" width="170" height="26" as="geometry" />
        </mxCell>
        <mxCell id="NbYUqvhHUvDfvWMLCeVP-72" value="birthday" style="text;align=left;verticalAlign=top;spacingLeft=4;spacingRight=4;overflow=hidden;rotatable=0;points=[[0,0.5],[1,0.5]];portConstraint=eastwest;rounded=0;shadow=0;html=0;" parent="NbYUqvhHUvDfvWMLCeVP-69" vertex="1">
          <mxGeometry y="76" width="170" height="26" as="geometry" />
        </mxCell>
        <mxCell id="NbYUqvhHUvDfvWMLCeVP-73" value="commands" style="text;align=left;verticalAlign=top;spacingLeft=4;spacingRight=4;overflow=hidden;rotatable=0;points=[[0,0.5],[1,0.5]];portConstraint=eastwest;rounded=0;shadow=0;html=0;" parent="NbYUqvhHUvDfvWMLCeVP-69" vertex="1">
          <mxGeometry y="102" width="170" height="26" as="geometry" />
        </mxCell>
        <mxCell id="NbYUqvhHUvDfvWMLCeVP-78" value="Donkeys" style="swimlane;fontStyle=0;align=center;verticalAlign=top;childLayout=stackLayout;horizontal=1;startSize=26;horizontalStack=0;resizeParent=1;resizeLast=0;collapsible=1;marginBottom=0;rounded=0;shadow=0;strokeWidth=1;" parent="WIyWlLk6GJQsqaUBKTNV-1" vertex="1">
          <mxGeometry x="440" y="640" width="170" height="130" as="geometry">
            <mxRectangle x="550" y="140" width="160" height="26" as="alternateBounds" />
          </mxGeometry>
        </mxCell>
        <mxCell id="NbYUqvhHUvDfvWMLCeVP-79" value="id" style="text;align=left;verticalAlign=top;spacingLeft=4;spacingRight=4;overflow=hidden;rotatable=0;points=[[0,0.5],[1,0.5]];portConstraint=eastwest;" parent="NbYUqvhHUvDfvWMLCeVP-78" vertex="1">
          <mxGeometry y="26" width="170" height="24" as="geometry" />
        </mxCell>
        <mxCell id="NbYUqvhHUvDfvWMLCeVP-80" value="name" style="text;align=left;verticalAlign=top;spacingLeft=4;spacingRight=4;overflow=hidden;rotatable=0;points=[[0,0.5],[1,0.5]];portConstraint=eastwest;rounded=0;shadow=0;html=0;" parent="NbYUqvhHUvDfvWMLCeVP-78" vertex="1">
          <mxGeometry y="50" width="170" height="26" as="geometry" />
        </mxCell>
        <mxCell id="NbYUqvhHUvDfvWMLCeVP-81" value="birthday" style="text;align=left;verticalAlign=top;spacingLeft=4;spacingRight=4;overflow=hidden;rotatable=0;points=[[0,0.5],[1,0.5]];portConstraint=eastwest;rounded=0;shadow=0;html=0;" parent="NbYUqvhHUvDfvWMLCeVP-78" vertex="1">
          <mxGeometry y="76" width="170" height="26" as="geometry" />
        </mxCell>
        <mxCell id="NbYUqvhHUvDfvWMLCeVP-82" value="commands" style="text;align=left;verticalAlign=top;spacingLeft=4;spacingRight=4;overflow=hidden;rotatable=0;points=[[0,0.5],[1,0.5]];portConstraint=eastwest;rounded=0;shadow=0;html=0;" parent="NbYUqvhHUvDfvWMLCeVP-78" vertex="1">
          <mxGeometry y="102" width="170" height="26" as="geometry" />
        </mxCell>
        <mxCell id="NbYUqvhHUvDfvWMLCeVP-87" value="" style="endArrow=classic;html=1;rounded=0;exitX=-0.006;exitY=0.923;exitDx=0;exitDy=0;exitPerimeter=0;" parent="WIyWlLk6GJQsqaUBKTNV-1" edge="1">
          <mxGeometry width="50" height="50" relative="1" as="geometry">
            <mxPoint x="440" y="720" as="sourcePoint" />
            <mxPoint x="401" y="270" as="targetPoint" />
            <Array as="points">
              <mxPoint x="401" y="720" />
              <mxPoint x="401" y="530" />
              <mxPoint x="401" y="350" />
            </Array>
          </mxGeometry>
        </mxCell>
        <mxCell id="NbYUqvhHUvDfvWMLCeVP-88" value="" style="endArrow=none;html=1;rounded=0;exitX=0;exitY=0.5;exitDx=0;exitDy=0;" parent="WIyWlLk6GJQsqaUBKTNV-1" source="NbYUqvhHUvDfvWMLCeVP-63" edge="1">
          <mxGeometry width="50" height="50" relative="1" as="geometry">
            <mxPoint x="420" y="400" as="sourcePoint" />
            <mxPoint x="400" y="399" as="targetPoint" />
          </mxGeometry>
        </mxCell>
        <mxCell id="NbYUqvhHUvDfvWMLCeVP-89" value="" style="endArrow=none;html=1;rounded=0;exitX=0;exitY=0.962;exitDx=0;exitDy=0;exitPerimeter=0;" parent="WIyWlLk6GJQsqaUBKTNV-1" source="NbYUqvhHUvDfvWMLCeVP-72" edge="1">
          <mxGeometry width="50" height="50" relative="1" as="geometry">
            <mxPoint x="410" y="670" as="sourcePoint" />
            <mxPoint x="400" y="570" as="targetPoint" />
          </mxGeometry>
        </mxCell>
        <mxCell id="NbYUqvhHUvDfvWMLCeVP-90" value="" style="endArrow=classic;html=1;rounded=0;exitX=-0.012;exitY=0.985;exitDx=0;exitDy=0;exitPerimeter=0;" parent="WIyWlLk6GJQsqaUBKTNV-1" edge="1">
          <mxGeometry width="50" height="50" relative="1" as="geometry">
            <mxPoint x="578.0799999999999" y="158.98000000000002" as="sourcePoint" />
            <mxPoint x="190" y="190" as="targetPoint" />
            <Array as="points">
              <mxPoint x="190" y="160" />
            </Array>
          </mxGeometry>
        </mxCell>
        <mxCell id="NbYUqvhHUvDfvWMLCeVP-92" value="" style="endArrow=classic;html=1;rounded=0;entryX=0.25;entryY=0;entryDx=0;entryDy=0;" parent="WIyWlLk6GJQsqaUBKTNV-1" target="Vpkc8oP_tYxhBSiS7Xzb-7" edge="1">
          <mxGeometry width="50" height="50" relative="1" as="geometry">
            <mxPoint x="400" y="160" as="sourcePoint" />
            <mxPoint x="440" y="330" as="targetPoint" />
          </mxGeometry>
        </mxCell>
      </root>
    </mxGraphModel>
  </diagram>
</mxfile>
